<svg width="89" height="61" viewBox="0 0 89 61" fill="none" xmlns="http://www.w3.org/2000/svg">
<path d="M21.9974 44.886C21.3973 45.1044 20.7877 45.1517 20.1689 45.0277C19.5555 44.9018 19.0042 44.6379 18.5148 44.2362C18.0289 43.8269 17.6737 43.3139 17.4491 42.6973L17.1663 41.921C17.1442 41.8605 17.1607 41.8202 17.2158 41.8001L19.1154 41.1088C19.1594 41.0927 19.1925 41.115 19.2145 41.1755L19.4973 41.9518C19.6317 42.3207 19.8719 42.5949 20.2179 42.7745C20.562 42.9486 20.9074 42.9725 21.2543 42.8462C21.6067 42.718 21.8577 42.4739 22.0071 42.1139C22.1546 41.7485 22.1632 41.3868 22.0328 41.029C21.8824 40.6161 21.4812 40.3536 20.8293 40.2417C20.7212 40.2187 20.5815 40.1948 20.4103 40.1698C20.2425 40.1373 20.0432 40.1038 19.8124 40.0694C19.5816 40.0349 19.3573 40.0012 19.1395 39.9682C18.9197 39.9298 18.7074 39.8948 18.5026 39.8633C17.7536 39.7244 17.1284 39.4376 16.627 39.0027C16.1291 38.5604 15.7558 37.9979 15.5071 37.3152C15.2784 36.6876 15.226 36.0645 15.3499 35.4457C15.4757 34.8325 15.7332 34.2898 16.1225 33.8177C16.5152 33.338 17.0034 32.992 17.587 32.7796C18.1872 32.5611 18.7919 32.5094 19.4013 32.6243C20.0126 32.7447 20.5582 33.0013 21.0381 33.3941C21.5234 33.7849 21.8794 34.2913 22.106 34.9134L22.6115 36.3008C22.6275 36.3448 22.6135 36.3749 22.5695 36.3909L20.6699 37.0823C20.6258 37.0983 20.5958 37.0843 20.5797 37.0403L20.0578 35.6589C19.9134 35.2625 19.6722 34.9856 19.3342 34.828C18.9961 34.6704 18.6564 34.6538 18.3151 34.778C17.9682 34.9043 17.719 35.1446 17.5675 35.4991C17.416 35.8535 17.4064 36.2124 17.5388 36.5758C17.6732 36.9446 17.8626 37.2249 18.107 37.4165C18.3569 37.6061 18.7322 37.7377 19.2329 37.8111C19.285 37.8171 19.4069 37.835 19.5987 37.865C19.7904 37.895 20.0027 37.93 20.2356 37.9699C20.4719 38.0024 20.6859 38.0336 20.8777 38.0636C21.0675 38.088 21.1819 38.1025 21.2209 38.107C21.8968 38.2164 22.4805 38.4405 22.9718 38.7792C23.4686 39.1159 23.8384 39.6173 24.0811 40.2835C24.3157 40.9276 24.3777 41.5598 24.2669 42.18C24.1505 42.8022 23.896 43.3532 23.5033 43.8328C23.1105 44.3125 22.6086 44.6635 21.9974 44.886ZM29.6205 42.1114C29.0203 42.3298 28.4108 42.3771 27.792 42.2532C27.1786 42.1272 26.6245 41.8644 26.1296 41.4646C25.6383 41.0573 25.2803 40.5454 25.0556 39.9287L23.1197 34.5632C22.891 33.9356 22.8369 33.3162 22.9572 32.705C23.07 32.0902 23.3245 31.5393 23.7207 31.0521C24.115 30.5595 24.6094 30.2049 25.2041 29.9885C25.8208 29.764 26.4293 29.714 27.0296 29.8384C27.6355 29.9609 28.1803 30.224 28.6642 30.6278C29.1515 31.0241 29.5085 31.5333 29.7351 32.1554L31.7041 37.5089C31.9288 38.1255 31.9857 38.7439 31.8749 39.3641C31.7606 39.9919 31.5091 40.5511 31.1203 41.0417C30.7316 41.5324 30.2317 41.889 29.6205 42.1114ZM28.8774 40.0717C29.2188 39.9474 29.466 39.7015 29.6189 39.3341C29.7699 38.9611 29.7823 38.6012 29.6559 38.2544L27.6869 32.9009C27.5505 32.5265 27.3168 32.253 26.9858 32.0804C26.6548 31.9079 26.3076 31.8877 25.9442 32.02C25.5973 32.1462 25.3461 32.3811 25.1906 32.7245C25.0351 33.0679 25.0275 33.4323 25.1679 33.8177L27.1204 39.1772C27.2548 39.5461 27.495 39.8203 27.841 39.9999C28.1851 40.174 28.5305 40.1979 28.8774 40.0717ZM39.6941 38.2578L34.2267 40.2478C34.1826 40.2639 34.1506 40.2444 34.1305 40.1893L29.9201 28.5806C29.9001 28.5256 29.9176 28.488 29.9727 28.468L31.8557 27.7826C31.9108 27.7626 31.9483 27.7801 31.9684 27.8351L35.4507 37.4453L38.936 36.1768C38.9911 36.1568 39.0286 36.1743 39.0487 36.2293L39.7466 38.1452C39.7667 38.2003 39.7492 38.2378 39.6941 38.2578ZM43.9911 36.6752L40.966 37.7949C40.911 37.815 40.8734 37.7974 40.8533 37.7424L36.6535 26.1112C36.6374 26.0671 36.6514 26.0371 36.6955 26.0211L39.8527 24.8532C40.4743 24.6083 41.0936 24.545 41.7105 24.6634C42.3328 24.7798 42.8897 25.0417 43.3811 25.449C43.8759 25.8488 44.2367 26.3597 44.4633 26.9818L46.2323 31.8376C46.469 32.4872 46.5286 33.1389 46.4113 33.7927C46.2865 34.443 46.018 35.0239 45.6058 35.5356C45.1915 36.0418 44.6533 36.4217 43.9911 36.6752ZM40.5898 26.8765L39.4147 27.3228L42.1901 34.9924L43.2389 34.6106C43.6574 34.4583 43.9566 34.1842 44.1367 33.7882C44.3167 33.3922 44.3325 32.9905 44.1841 32.5831L42.4091 27.7108C42.2787 27.3529 42.0332 27.09 41.6727 26.9219C41.3101 26.7483 40.9491 26.7332 40.5898 26.8765ZM56.4458 32.3478C55.8456 32.5662 55.2361 32.6135 54.6172 32.4896C54.0039 32.3636 53.4498 32.1008 52.9549 31.701C52.4635 31.2937 52.1055 30.7818 51.8809 30.1651L49.9449 24.7996C49.7163 24.172 49.6621 23.5526 49.7825 22.9413C49.8953 22.3266 50.1498 21.7757 50.546 21.2885C50.9403 20.7958 51.4347 20.4413 52.0294 20.2249C52.646 20.0004 53.2545 19.9504 53.8549 20.0748C54.4607 20.1973 55.0056 20.4604 55.4894 20.8642C55.9768 21.2605 56.3338 21.7697 56.5604 22.3918L58.5294 27.7453C58.7541 28.3619 58.811 28.9803 58.7002 29.6005C58.5859 30.2283 58.3344 30.7875 57.9456 31.2781C57.5569 31.7688 57.0569 32.1254 56.4458 32.3478ZM55.7027 30.308C56.0441 30.1838 56.2912 29.9379 56.4442 29.5705C56.5952 29.1975 56.6075 28.8376 56.4812 28.4908L54.5122 23.1373C54.3758 22.7629 54.1421 22.4894 53.8111 22.3168C53.4801 22.1443 53.1328 22.1241 52.7694 22.2564C52.4226 22.3826 52.1714 22.6175 52.0159 22.9609C51.8603 23.3043 51.8528 23.6687 51.9932 24.0541L53.9457 29.4136C54.08 29.7825 54.3203 30.0567 54.6663 30.2363C55.0103 30.4104 55.3558 30.4343 55.7027 30.308ZM64.1597 29.5402C63.565 29.7566 62.9583 29.8029 62.3394 29.6789C61.7206 29.555 61.1654 29.2894 60.6741 28.8821C60.1862 28.4673 59.83 27.9516 59.6053 27.335L56.5577 18.8666C56.5417 18.8226 56.5557 18.7925 56.5997 18.7765L58.4993 18.0851C58.5433 18.0691 58.5734 18.0831 58.5894 18.1271L61.6701 26.5835C61.8085 26.9633 62.0479 27.2441 62.3885 27.4257C62.727 27.6017 63.0697 27.6267 63.4166 27.5004C63.78 27.3681 64.0347 27.1258 64.1807 26.7734C64.3247 26.4154 64.3275 26.0465 64.1891 25.6666L61.1084 17.2103C61.0924 17.1663 61.1064 17.1362 61.1504 17.1202L63.05 16.4288C63.0941 16.4128 63.1241 16.4268 63.1402 16.4708L66.2538 24.9151C66.4805 25.5372 66.5404 26.1639 66.4336 26.7951C66.3193 27.4229 66.0678 27.9821 65.6791 28.4727C65.2883 28.9579 64.7819 29.3137 64.1597 29.5402ZM72.3751 26.363L70.4672 27.0574C70.4177 27.0754 70.3829 27.0569 70.3628 27.0018L66.8489 17.3563L64.652 18.1559C64.597 18.176 64.5594 18.1585 64.5394 18.1034L63.8669 16.2063C63.8509 16.1622 63.8649 16.1322 63.909 16.1162L70.3345 13.7775C70.395 13.7554 70.4333 13.7664 70.4494 13.8105L71.1383 15.7016C71.1584 15.7566 71.1464 15.7922 71.1023 15.8082L68.8807 16.6168L72.411 26.2563C72.4311 26.3114 72.4191 26.3469 72.3751 26.363Z" fill="white"/>
<path d="M6.24311 29.9476L73.8256 5.34959L82.9233 30.3228L15.3409 54.9208L6.24311 29.9476Z" stroke="white" stroke-width="1.5"/>
<path d="M1.93647 27.8319L75.763 0.961221L87.2302 32.4384L13.4037 59.3091L1.93647 27.8319Z" stroke="white" stroke-width="1.5"/>
</svg>
