<svg width="21" height="19" viewBox="0 0 21 19" fill="none" xmlns="http://www.w3.org/2000/svg">
<path d="M20.84 0.543999H0.16L10.5 18.452L20.84 0.543999Z" fill="#C45454"/>
<path d="M20.84 0.543999L21.706 1.04403L22.5721 -0.456001H20.84V0.543999ZM0.16 0.543999V-0.456001H-1.57212L-0.706008 1.04403L0.16 0.543999ZM10.5 18.452L9.63399 18.952L10.5 20.4519L11.366 18.952L10.5 18.452ZM20.84 -0.456001H0.16V1.544H20.84V-0.456001ZM-0.706008 1.04403L9.63399 18.952L11.366 17.952L1.02601 0.04397L-0.706008 1.04403ZM11.366 18.952L21.706 1.04403L19.974 0.04397L9.63399 17.952L11.366 18.952Z" fill="black"/>
</svg>
