<svg width="349" height="45" viewBox="0 0 349 45" fill="none" xmlns="http://www.w3.org/2000/svg">
<g filter="url(#filter0_i_53_114)">
<path d="M24.8 18.75C25.4 18.75 25.8333 18.6167 26.1 18.35C26.3667 18.0833 26.7833 17.5167 27.35 16.65L33.45 7.35C33.65 7.01667 33.8667 6.8 34.1 6.7C34.3667 6.56666 34.6333 6.5 34.9 6.5H35.75C36.2167 6.5 36.55 6.63333 36.75 6.9C36.9833 7.13333 37.1 7.51667 37.1 8.05V33.5H36.6V8.05C36.6 7.78333 36.5333 7.55 36.4 7.35C36.3 7.11667 36.0833 7 35.75 7H35C34.7667 7 34.5667 7.03333 34.4 7.1C34.2333 7.16666 34.05 7.36666 33.85 7.7L27.75 16.9C27.15 17.8 26.6833 18.4167 26.35 18.75C26.05 19.0833 25.5333 19.25 24.8 19.25C24.0667 19.25 23.5333 19.0833 23.2 18.75C22.9 18.4167 22.45 17.8 21.85 16.9L15.75 7.7C15.55 7.36666 15.35 7.16666 15.15 7.1C14.9833 7.03333 14.7833 7 14.55 7H13.8C13.4667 7 13.25 7.11667 13.15 7.35C13.05 7.55 13 7.78333 13 8.05V33.5H12.5V8.05C12.5 7.51667 12.6 7.13333 12.8 6.9C13.0333 6.63333 13.3667 6.5 13.8 6.5H14.65C14.9167 6.5 15.1833 6.56666 15.45 6.7C15.7167 6.8 15.95 7.01667 16.15 7.35L22.25 16.65C22.8167 17.5167 23.2333 18.0833 23.5 18.35C23.7667 18.6167 24.2 18.75 24.8 18.75ZM16.45 38C17.0833 38 17.5333 37.8667 17.8 37.6C18.1 37.3 18.25 36.8333 18.25 36.2V18.6L21.2 24.05C21.5 24.6167 21.85 25.0333 22.25 25.3C22.6833 25.5333 23.2167 25.65 23.85 25.65H25.85C26.4833 25.65 27 25.5333 27.4 25.3C27.8333 25.0333 28.2 24.6167 28.5 24.05L31.45 18.6V36.2C31.45 36.8333 31.5833 37.3 31.85 37.6C32.15 37.8667 32.6167 38 33.25 38H40.95C41.5833 38 42.0333 37.8667 42.3 37.6C42.6 37.3 42.75 36.8333 42.75 36.2V3.8C42.75 3.16667 42.6 2.71667 42.3 2.45C42.0333 2.15 41.5833 2 40.95 2H32.85C32.3167 2 31.8667 2.11666 31.5 2.35C31.1667 2.58333 30.85 2.96666 30.55 3.5L26.1 11.65C25.9333 11.95 25.7833 12.1667 25.65 12.3C25.55 12.4333 25.4 12.5 25.2 12.5H24.75C24.55 12.5 24.3833 12.4333 24.25 12.3C24.15 12.1667 24.0167 11.95 23.85 11.65L19.35 3.5C19.05 2.96666 18.7167 2.58333 18.35 2.35C18.0167 2.11666 17.5833 2 17.05 2H9C8.36667 2 7.9 2.15 7.6 2.45C7.33333 2.71667 7.2 3.16667 7.2 3.8V36.2C7.2 36.8333 7.33333 37.3 7.6 37.6C7.9 37.8667 8.36667 38 9 38H16.45ZM18.05 38.05L11.55 43.45C11.4167 43.5833 11.2 43.7 10.9 43.8C10.6333 43.9 10.3333 43.95 10 43.95H2.55C1.75 43.95 1.16667 43.7667 0.8 43.4C0.433333 43.0333 0.25 42.45 0.25 41.65V9.25C0.25 8.81667 0.3 8.45 0.4 8.15C0.533333 7.85 0.716667 7.6 0.95 7.4L7.4 1.95C7.56667 1.81667 7.78333 1.71666 8.05 1.65C8.35 1.55 8.66667 1.5 9 1.5H17.05C17.6833 1.5 18.2 1.63333 18.6 1.9C19.0333 2.16666 19.4333 2.61666 19.8 3.25L23.2 9.5L23.65 8.7C23.7833 8.46666 23.9167 8.25 24.05 8.05C24.2167 7.81667 24.3833 7.63333 24.55 7.5L31 2.1C31.2667 1.9 31.5333 1.75 31.8 1.65C32.1 1.55 32.45 1.5 32.85 1.5H40.95C41.75 1.5 42.3333 1.68333 42.7 2.05C43.0667 2.41667 43.25 3 43.25 3.8V36.2C43.25 36.6333 43.1833 37 43.05 37.3C42.95 37.6 42.7833 37.85 42.55 38.05L36.05 43.45C35.9167 43.5833 35.7 43.7 35.4 43.8C35.1333 43.9 34.8333 43.95 34.5 43.95H26.8C25.9667 43.95 25.3667 43.7667 25 43.4C24.6667 43.0333 24.5 42.45 24.5 41.65V28.45L21.55 30.9C21.2833 31.1333 20.9667 31.3167 20.6 31.45C20.2667 31.55 19.8667 31.6 19.4 31.6H18.75V36.2C18.75 36.6333 18.6833 37 18.55 37.3C18.45 37.6 18.2833 37.85 18.05 38.05ZM66.4609 43.95H58.3609C57.5276 43.95 56.9276 43.7667 56.5609 43.4C56.2276 43.0333 56.0609 42.45 56.0609 41.65V35.4L48.5109 25.3C47.7109 24.2333 47.1776 23.3 46.9109 22.5C46.6443 21.7 46.5109 20.4833 46.5109 18.85V9.25C46.5109 8.81667 46.5609 8.45 46.6609 8.15C46.7943 7.85 46.9776 7.6 47.2109 7.4L53.6609 1.95C53.8276 1.81667 54.0443 1.71666 54.3109 1.65C54.6109 1.55 54.9276 1.5 55.2609 1.5H62.9609C63.7609 1.5 64.3443 1.68333 64.7109 2.05C65.0776 2.41667 65.2609 3 65.2609 3.8V12C65.2609 12.3 65.2776 12.6 65.3109 12.9C65.3443 13.2 65.4443 13.5167 65.6109 13.85L66.2109 14.7V9.25C66.2109 8.81667 66.2609 8.45 66.3609 8.15C66.4943 7.85 66.6776 7.6 66.9109 7.4L73.3609 1.95C73.5276 1.81667 73.7443 1.71666 74.0109 1.65C74.3109 1.55 74.6276 1.5 74.9609 1.5H82.4109C83.2109 1.5 83.7943 1.68333 84.1609 2.05C84.5276 2.41667 84.7109 3 84.7109 3.8V13.4C84.7109 15.0333 84.5776 16.25 84.3109 17.05C84.0443 17.85 83.5109 18.7833 82.7109 19.85L75.2109 30V36.2C75.2109 36.6333 75.1443 37 75.0109 37.3C74.9109 37.6 74.7443 37.85 74.5109 38.05L68.0109 43.45C67.8776 43.5833 67.6609 43.7 67.3609 43.8C67.0943 43.9 66.7943 43.95 66.4609 43.95ZM72.9109 38C73.5443 38 73.9943 37.8667 74.2609 37.6C74.5609 37.3 74.7109 36.8333 74.7109 36.2V29.85L82.3109 19.55C83.0443 18.5167 83.5443 17.6167 83.8109 16.85C84.0776 16.0833 84.2109 14.9333 84.2109 13.4V3.8C84.2109 3.16667 84.0609 2.71667 83.7609 2.45C83.4943 2.15 83.0443 2 82.4109 2H74.9609C74.3276 2 73.8609 2.15 73.5609 2.45C73.2943 2.71667 73.1609 3.16667 73.1609 3.8V12C73.1609 12.3333 73.1443 12.6833 73.1109 13.05C73.0776 13.4167 72.9443 13.7667 72.7109 14.1L70.4109 17.7C70.2443 18 70.0609 18.2167 69.8609 18.35C69.6943 18.4833 69.4776 18.55 69.2109 18.55H68.7109C68.4443 18.55 68.2109 18.4833 68.0109 18.35C67.8443 18.2167 67.6776 18 67.5109 17.7L65.2109 14.1C64.9776 13.7667 64.8443 13.4167 64.8109 13.05C64.7776 12.6833 64.7609 12.3333 64.7609 12V3.8C64.7609 3.16667 64.6109 2.71667 64.3109 2.45C64.0443 2.15 63.5943 2 62.9609 2H55.2609C54.6276 2 54.1609 2.15 53.8609 2.45C53.5943 2.71667 53.4609 3.16667 53.4609 3.8V13.4C53.4609 14.9333 53.5776 16.0833 53.8109 16.85C54.0776 17.6167 54.5943 18.5167 55.3609 19.55L63.0109 29.8V36.2C63.0109 36.8333 63.1443 37.3 63.4109 37.6C63.7109 37.8667 64.1776 38 64.8109 38H72.9109ZM69.4609 24.95H69.1109V33.5H68.6109V24.95H68.1109C67.3776 24.95 66.7109 24.7833 66.1109 24.45C65.5443 24.1167 64.9943 23.5833 64.4609 22.85L59.6109 16.1C59.2443 15.6 59.0276 15.0167 58.9609 14.35C58.8943 13.6833 58.8609 12.9833 58.8609 12.25V6.5H59.3609V12.25C59.3609 12.95 59.3943 13.6167 59.4609 14.25C59.5276 14.85 59.7276 15.4 60.0609 15.9L64.9109 22.65C65.3443 23.3167 65.8443 23.7833 66.4109 24.05C66.9776 24.3167 67.5443 24.45 68.1109 24.45H69.4609C70.0943 24.45 70.6609 24.3167 71.1609 24.05C71.6943 23.75 72.2109 23.2833 72.7109 22.65L77.7109 15.9C78.0443 15.4667 78.2443 14.9333 78.3109 14.3C78.3776 13.6333 78.4109 12.95 78.4109 12.25V6.5H78.9109V12.25C78.9109 12.9833 78.8776 13.6833 78.8109 14.35C78.7776 14.9833 78.5609 15.5667 78.1609 16.1L73.1609 22.85C72.6276 23.5833 72.0609 24.1167 71.4609 24.45C70.8943 24.7833 70.2276 24.95 69.4609 24.95ZM112.273 43.95C111.506 43.95 110.889 43.8 110.423 43.5C109.956 43.2333 109.573 42.7333 109.273 42L104.373 29.75C104.073 28.9833 103.806 28.3333 103.573 27.8C103.373 27.2333 103.206 26.7 103.073 26.2C102.939 25.6667 102.839 25.1167 102.773 24.55C102.739 23.95 102.723 23.25 102.723 22.45V9.25C102.723 8.81667 102.773 8.45 102.873 8.15C103.006 7.85 103.189 7.6 103.423 7.4L109.873 1.95C110.039 1.81667 110.256 1.71666 110.523 1.65C110.823 1.55 111.139 1.5 111.473 1.5H119.423C120.223 1.5 120.823 1.7 121.223 2.1C121.656 2.46667 121.873 3.03333 121.873 3.8V17.6C121.873 17.9333 121.906 18.25 121.973 18.55C122.039 18.85 122.123 19.1667 122.223 19.5L122.373 19.85V9.25C122.373 8.81667 122.423 8.45 122.523 8.15C122.656 7.85 122.839 7.6 123.073 7.4L129.523 1.95C129.689 1.81667 129.906 1.71666 130.173 1.65C130.473 1.55 130.789 1.5 131.123 1.5H138.973C139.806 1.5 140.389 1.68333 140.723 2.05C141.089 2.41667 141.273 3 141.273 3.8V17C141.273 17.8 141.239 18.5 141.173 19.1C141.139 19.6667 141.056 20.2167 140.923 20.75C140.789 21.25 140.606 21.7833 140.373 22.35C140.173 22.8833 139.923 23.5333 139.623 24.3L134.723 36.55C134.623 36.85 134.489 37.1167 134.323 37.35C134.156 37.5833 133.989 37.7667 133.823 37.9L127.373 43.25C127.106 43.4833 126.789 43.65 126.423 43.75C126.089 43.8833 125.706 43.95 125.273 43.95H112.273ZM131.723 38C132.356 38 132.873 37.8833 133.273 37.65C133.706 37.4167 134.039 36.9833 134.273 36.35L139.173 24.1C139.473 23.3667 139.723 22.7333 139.923 22.2C140.123 21.6333 140.289 21.1 140.423 20.6C140.556 20.1 140.639 19.5833 140.673 19.05C140.739 18.4833 140.773 17.8 140.773 17V3.8C140.773 3.16667 140.623 2.71667 140.323 2.45C140.056 2.15 139.606 2 138.973 2H131.123C130.489 2 130.023 2.15 129.723 2.45C129.456 2.71667 129.323 3.16667 129.323 3.8V17.55C129.323 17.8833 129.289 18.2167 129.223 18.55C129.156 18.8833 129.056 19.2333 128.923 19.6L126.573 26.65C126.473 26.9833 126.356 27.2167 126.223 27.35C126.089 27.45 125.889 27.5 125.623 27.5H125.073C124.806 27.5 124.606 27.45 124.473 27.35C124.339 27.2167 124.223 26.9833 124.123 26.65L121.773 19.65C121.639 19.2833 121.539 18.9333 121.473 18.6C121.406 18.2667 121.373 17.9333 121.373 17.6V3.8C121.373 3.16667 121.206 2.71667 120.873 2.45C120.539 2.15 120.056 2 119.423 2H111.473C110.839 2 110.373 2.15 110.073 2.45C109.806 2.71667 109.673 3.16667 109.673 3.8V17C109.673 17.8 109.689 18.4833 109.723 19.05C109.789 19.5833 109.889 20.1 110.023 20.6C110.156 21.1 110.323 21.6333 110.523 22.2C110.723 22.7333 110.973 23.3667 111.273 24.1L116.173 36.35C116.406 36.9833 116.723 37.4167 117.123 37.65C117.556 37.8833 118.089 38 118.723 38H131.723ZM115.323 6.5H115.823V17.3C115.823 18.1667 115.889 19 116.023 19.8C116.156 20.5667 116.356 21.2833 116.623 21.95L119.923 29.95C120.256 30.8167 120.623 31.55 121.023 32.15C121.456 32.7167 122.139 33 123.073 33H127.473C128.406 33 129.073 32.7167 129.473 32.15C129.906 31.55 130.289 30.8167 130.623 29.95L133.923 21.95C134.189 21.2833 134.389 20.5667 134.523 19.8C134.656 19 134.723 18.1667 134.723 17.3V6.5H135.223V17.3C135.223 18.2333 135.156 19.1 135.023 19.9C134.923 20.6667 134.723 21.4167 134.423 22.15L131.123 30.15C130.723 31.1167 130.273 31.9167 129.773 32.55C129.273 33.1833 128.506 33.5 127.473 33.5H123.073C122.039 33.5 121.273 33.1833 120.773 32.55C120.273 31.9167 119.823 31.1167 119.423 30.15L116.123 22.15C115.823 21.4167 115.606 20.6667 115.473 19.9C115.373 19.1 115.323 18.2333 115.323 17.3V6.5ZM170.477 43.95H147.277C146.477 43.95 145.893 43.7667 145.527 43.4C145.16 43.0333 144.977 42.45 144.977 41.65V9.25C144.977 8.81667 145.027 8.45 145.127 8.15C145.26 7.85 145.443 7.6 145.677 7.4L152.127 1.95C152.293 1.81667 152.51 1.71666 152.777 1.65C153.077 1.55 153.393 1.5 153.727 1.5H176.927C177.727 1.5 178.31 1.68333 178.677 2.05C179.043 2.41667 179.227 3 179.227 3.8V9.65C179.227 10.0833 179.16 10.45 179.027 10.75C178.927 11.05 178.76 11.3 178.527 11.5L174.227 15.05C174.56 15.2167 174.793 15.4667 174.927 15.8C175.093 16.1333 175.177 16.5667 175.177 17.1V22.45C175.177 22.8833 175.11 23.25 174.977 23.55C174.877 23.85 174.71 24.1 174.477 24.3L170.027 28.05H176.927C177.727 28.05 178.31 28.2333 178.677 28.6C179.043 28.9667 179.227 29.55 179.227 30.35V36.2C179.227 36.6333 179.16 37 179.027 37.3C178.927 37.6 178.76 37.85 178.527 38.05L172.027 43.45C171.893 43.5833 171.677 43.7 171.377 43.8C171.11 43.9 170.81 43.95 170.477 43.95ZM176.927 38C177.56 38 178.01 37.8667 178.277 37.6C178.577 37.3 178.727 36.8333 178.727 36.2V30.35C178.727 29.7167 178.577 29.2667 178.277 29C178.01 28.7 177.56 28.55 176.927 28.55H163.127V24.25H172.877C173.51 24.25 173.96 24.1167 174.227 23.85C174.527 23.55 174.677 23.0833 174.677 22.45V17.1C174.677 16.4667 174.527 16.0167 174.227 15.75C173.96 15.45 173.51 15.3 172.877 15.3H163.127V11.45H176.927C177.56 11.45 178.01 11.3167 178.277 11.05C178.577 10.75 178.727 10.2833 178.727 9.65V3.8C178.727 3.16667 178.577 2.71667 178.277 2.45C178.01 2.15 177.56 2 176.927 2H153.727C153.093 2 152.627 2.15 152.327 2.45C152.06 2.71667 151.927 3.16667 151.927 3.8V36.2C151.927 36.8333 152.06 37.3 152.327 37.6C152.627 37.8667 153.093 38 153.727 38H176.927ZM174.227 33V33.5H157.377V6.5H174.227V7H157.877V19.55H170.177V20.05H157.877V33H174.227ZM196.222 6.9L214.622 27.6V6.5H215.122V33.5H214.622V28.35L195.722 7.15C195.689 7.11666 195.639 7.08333 195.572 7.05C195.539 7.01667 195.505 7 195.472 7C195.439 7 195.405 7.01667 195.372 7.05C195.372 7.08333 195.372 7.11666 195.372 7.15V33.5H194.872V7.05C194.872 6.85 194.939 6.7 195.072 6.6C195.205 6.5 195.339 6.45 195.472 6.45C195.605 6.45 195.722 6.48333 195.822 6.55C195.922 6.61667 196.055 6.73333 196.222 6.9ZM198.922 38C199.555 38 200.005 37.8667 200.272 37.6C200.572 37.3 200.722 36.8333 200.722 36.2V19.7L209.272 30.05V36.2C209.272 36.8333 209.405 37.3 209.672 37.6C209.972 37.8667 210.439 38 211.072 38H218.572C219.205 38 219.655 37.8667 219.922 37.6C220.222 37.3 220.372 36.8333 220.372 36.2V3.8C220.372 3.16667 220.222 2.71667 219.922 2.45C219.655 2.15 219.205 2 218.572 2H211.072C210.439 2 209.972 2.15 209.672 2.45C209.405 2.71667 209.272 3.16667 209.272 3.8V14.45L199.572 3.35C199.139 2.85 198.689 2.5 198.222 2.3C197.789 2.1 197.255 2 196.622 2H191.422C190.789 2 190.322 2.15 190.022 2.45C189.755 2.71667 189.622 3.16667 189.622 3.8V36.2C189.622 36.8333 189.755 37.3 190.022 37.6C190.322 37.8667 190.789 38 191.422 38H198.922ZM200.522 38.05L194.022 43.45C193.889 43.5833 193.672 43.7 193.372 43.8C193.105 43.9 192.805 43.95 192.472 43.95H184.972C184.172 43.95 183.589 43.7667 183.222 43.4C182.855 43.0333 182.672 42.45 182.672 41.65V9.25C182.672 8.81667 182.722 8.45 182.822 8.15C182.955 7.85 183.139 7.6 183.372 7.4L189.822 1.95C189.989 1.81667 190.205 1.71666 190.472 1.65C190.772 1.55 191.089 1.5 191.422 1.5H196.622C197.355 1.5 197.972 1.61667 198.472 1.85C198.972 2.08333 199.472 2.46667 199.972 3L203.422 7L209.472 1.95C209.639 1.81667 209.855 1.71666 210.122 1.65C210.422 1.55 210.739 1.5 211.072 1.5H218.572C219.372 1.5 219.955 1.68333 220.322 2.05C220.689 2.41667 220.872 3 220.872 3.8V36.2C220.872 36.6333 220.805 37 220.672 37.3C220.572 37.6 220.405 37.85 220.172 38.05L213.672 43.45C213.539 43.5833 213.322 43.7 213.022 43.8C212.755 43.9 212.455 43.95 212.122 43.95H204.622C203.822 43.95 203.239 43.7667 202.872 43.4C202.505 43.0333 202.322 42.45 202.322 41.65V35.7L201.222 34.35V36.2C201.222 36.6333 201.155 37 201.022 37.3C200.922 37.6 200.755 37.85 200.522 38.05ZM254.049 41.3C253.015 42.1667 251.699 42.8167 250.099 43.25C248.499 43.7167 246.615 43.95 244.449 43.95H227.599C226.799 43.95 226.215 43.7667 225.849 43.4C225.482 43.0333 225.299 42.45 225.299 41.65V9.25C225.299 8.81667 225.349 8.45 225.449 8.15C225.582 7.85 225.765 7.6 225.999 7.4L232.449 1.95C232.615 1.81667 232.832 1.71666 233.099 1.65C233.399 1.55 233.715 1.5 234.049 1.5H250.899C255.265 1.5 258.482 2.38333 260.549 4.15C262.649 5.91667 263.699 8.6 263.699 12.2V27.8C263.699 29.6 263.432 31.1833 262.899 32.55C262.365 33.8833 261.582 35 260.549 35.9L254.049 41.3ZM250.899 38C255.065 38 258.149 37.1667 260.149 35.5C262.182 33.8333 263.199 31.2667 263.199 27.8V12.2C263.199 8.73333 262.182 6.16667 260.149 4.5C258.149 2.83333 255.065 2 250.899 2H234.049C233.415 2 232.949 2.15 232.649 2.45C232.382 2.71667 232.249 3.16667 232.249 3.8V36.2C232.249 36.8333 232.382 37.3 232.649 37.6C232.949 37.8667 233.415 38 234.049 38H250.899ZM237.699 33.5V6.5H249.799C251.499 6.5 252.865 6.68333 253.899 7.05C254.965 7.41667 255.782 7.91666 256.349 8.55C256.915 9.15 257.299 9.88333 257.499 10.75C257.699 11.5833 257.799 12.4833 257.799 13.45V26.7C257.799 27.6667 257.699 28.5667 257.499 29.4C257.332 30.2333 256.965 30.95 256.399 31.55C255.832 32.15 255.015 32.6333 253.949 33C252.882 33.3333 251.499 33.5 249.799 33.5H237.699ZM249.799 7H238.199V33H249.799C251.399 33 252.682 32.85 253.649 32.55C254.649 32.2167 255.415 31.7833 255.949 31.25C256.482 30.6833 256.832 30.0167 256.999 29.25C257.199 28.45 257.299 27.6 257.299 26.7V13.45C257.299 12.55 257.199 11.7 256.999 10.9C256.799 10.1 256.432 9.41667 255.899 8.85C255.365 8.28333 254.599 7.83333 253.599 7.5C252.632 7.16667 251.365 7 249.799 7ZM243.599 11.55H249.549C250.349 11.55 250.932 11.75 251.299 12.15C251.699 12.5167 251.899 13.1167 251.899 13.95V26.1C251.899 26.9333 251.699 27.55 251.299 27.95C250.932 28.35 250.349 28.55 249.549 28.55H243.599V11.55ZM244.949 19.4C244.949 18.9667 244.882 18.6 244.749 18.3C244.615 18 244.399 17.7833 244.099 17.65V28.05H244.949V19.4ZM296.084 41.55C294.917 42.55 293.284 43.3167 291.184 43.85C289.084 44.4167 286.384 44.7 283.084 44.7C279.817 44.7 277.134 44.35 275.034 43.65C272.967 42.9833 271.334 42.0833 270.134 40.95C268.967 39.8167 268.151 38.5167 267.684 37.05C267.251 35.5833 267.034 34.0667 267.034 32.5V16.95C267.034 15.4167 267.251 14 267.684 12.7C268.117 11.3667 268.901 10.2333 270.034 9.3L276.534 3.9C277.701 2.9 279.317 2.13333 281.384 1.6C283.484 1.03333 286.201 0.749997 289.534 0.749997C292.801 0.749997 295.467 1.01666 297.534 1.55C299.634 2.08333 301.267 2.83333 302.434 3.8C303.634 4.73333 304.451 5.86667 304.884 7.2C305.317 8.5 305.534 9.93333 305.534 11.5V28.55C305.534 30.0833 305.317 31.5 304.884 32.8C304.451 34.1 303.667 35.2167 302.534 36.15L296.084 41.55ZM305.034 28.55V11.5C305.034 9.96666 304.801 8.58333 304.334 7.35C303.901 6.08333 303.101 5 301.934 4.1C300.801 3.2 299.217 2.5 297.184 2C295.184 1.5 292.634 1.25 289.534 1.25C286.434 1.25 283.867 1.5 281.834 2C279.801 2.5 278.201 3.2 277.034 4.1C275.901 5 275.101 6.08333 274.634 7.35C274.201 8.58333 273.984 9.96666 273.984 11.5V28.55C273.984 30.0833 274.201 31.4833 274.634 32.75C275.101 33.9833 275.901 35.05 277.034 35.95C278.201 36.8167 279.801 37.5 281.834 38C283.867 38.5 286.434 38.75 289.534 38.75C292.634 38.75 295.184 38.5 297.184 38C299.217 37.5 300.801 36.8167 301.934 35.95C303.101 35.05 303.901 33.9833 304.334 32.75C304.801 31.4833 305.034 30.0833 305.034 28.55ZM299.584 27.4C299.584 29.4 298.867 31.0333 297.434 32.3C296.001 33.5333 293.334 34.15 289.434 34.15C285.534 34.15 282.884 33.5333 281.484 32.3C280.084 31.0333 279.384 29.4 279.384 27.4V12.65C279.384 10.65 280.084 9.03333 281.484 7.8C282.884 6.53333 285.534 5.9 289.434 5.9C293.334 5.9 296.001 6.53333 297.434 7.8C298.867 9.03333 299.584 10.65 299.584 12.65V27.4ZM279.884 27.4C279.884 29.2667 280.551 30.7833 281.884 31.95C283.217 33.0833 285.734 33.65 289.434 33.65C293.134 33.65 295.667 33.0833 297.034 31.95C298.401 30.7833 299.084 29.2667 299.084 27.4V12.65C299.084 10.7833 298.401 9.28333 297.034 8.15C295.667 6.98333 293.134 6.4 289.434 6.4C285.734 6.4 283.217 6.98333 281.884 8.15C280.551 9.28333 279.884 10.7833 279.884 12.65V27.4ZM285.334 26.75V13.3C285.334 12.6667 285.584 12.1333 286.084 11.7C286.584 11.2333 287.734 11 289.534 11C291.334 11 292.484 11.2333 292.984 11.7C293.484 12.1333 293.734 12.6667 293.734 13.3V26.75C293.734 27.4167 293.484 27.9833 292.984 28.45C292.484 28.8833 291.334 29.1 289.534 29.1C287.734 29.1 286.584 28.8833 286.084 28.45C285.584 27.9833 285.334 27.4167 285.334 26.75ZM285.834 26.75C285.834 27.0833 285.901 27.3833 286.034 27.65C286.167 27.8833 286.417 28.0833 286.784 28.25V18.75C286.784 18.4167 286.717 18.1333 286.584 17.9C286.451 17.6333 286.201 17.4333 285.834 17.3V26.75ZM333.18 7H322.28V21.45H333.18C335.246 21.45 336.63 20.95 337.33 19.95C338.03 18.95 338.38 17.5333 338.38 15.7V12.2C338.38 10.6667 337.946 9.41667 337.08 8.45C336.246 7.48333 334.946 7 333.18 7ZM327.68 11H331.43C332.296 11 332.88 11.2333 333.18 11.7C333.48 12.1333 333.63 12.6833 333.63 13.35V15.05C333.63 15.7167 333.48 16.2833 333.18 16.75C332.88 17.1833 332.296 17.4 331.43 17.4H327.68V11ZM322.28 33.5H321.78V6.5H333.18C335.113 6.5 336.546 7.05 337.48 8.15C338.413 9.21667 338.88 10.5667 338.88 12.2V15.65C338.88 17.1833 338.68 18.45 338.28 19.45C337.88 20.4167 337.08 21.0833 335.88 21.45H336.43C338.463 21.45 339.98 21.9167 340.98 22.85C341.98 23.75 342.48 25.0667 342.48 26.8V33.5H341.98V26.8C341.98 25.1667 341.53 23.95 340.63 23.15C339.73 22.3167 338.33 21.9 336.43 21.9H322.28V33.5ZM325.88 38C326.513 38 326.963 37.8667 327.23 37.6C327.53 37.3 327.68 36.8333 327.68 36.2V26.4H334.68C335.38 26.4 335.863 26.5833 336.13 26.95C336.43 27.2833 336.58 27.8167 336.58 28.55V36.2C336.58 36.8333 336.713 37.3 336.98 37.6C337.28 37.8667 337.746 38 338.38 38H346.13C346.763 38 347.213 37.8667 347.48 37.6C347.78 37.3 347.93 36.8333 347.93 36.2V25.6C347.93 23.5 347.363 21.8167 346.23 20.55C345.13 19.2833 343.68 18.55 341.88 18.35C342.913 17.9167 343.63 17.2167 344.03 16.25C344.463 15.25 344.68 14.05 344.68 12.65V10.35C344.68 7.88333 343.963 5.88333 342.53 4.35C341.13 2.78333 338.563 2 334.83 2H318.18C317.546 2 317.08 2.15 316.78 2.45C316.513 2.71667 316.38 3.16667 316.38 3.8V36.2C316.38 36.8333 316.513 37.3 316.78 37.6C317.08 37.8667 317.546 38 318.18 38H325.88ZM327.48 38.05L320.98 43.45C320.846 43.5833 320.63 43.7 320.33 43.8C320.063 43.9 319.763 43.95 319.43 43.95H311.73C310.93 43.95 310.346 43.7667 309.98 43.4C309.613 43.0333 309.43 42.45 309.43 41.65V9.25C309.43 8.81667 309.48 8.45 309.58 8.15C309.713 7.85 309.896 7.6 310.13 7.4L316.58 1.95C316.746 1.81667 316.963 1.71666 317.23 1.65C317.53 1.55 317.846 1.5 318.18 1.5H334.83C338.796 1.5 341.513 2.33333 342.98 4C344.446 5.63333 345.18 7.75 345.18 10.35V12.65C345.18 13.8833 345.03 14.9667 344.73 15.9C344.43 16.8 343.946 17.5333 343.28 18.1H343.23C344.796 18.5333 346.046 19.4 346.98 20.7C347.946 22 348.43 23.6333 348.43 25.6V36.2C348.43 36.6333 348.363 37 348.23 37.3C348.13 37.6 347.963 37.85 347.73 38.05L341.23 43.45C341.096 43.5833 340.88 43.7 340.58 43.8C340.313 43.9 340.013 43.95 339.68 43.95H331.93C331.13 43.95 330.546 43.7667 330.18 43.4C329.813 43.0333 329.63 42.45 329.63 41.65V34C329.63 33.4667 329.53 33.0667 329.33 32.8C329.13 32.5 328.763 32.35 328.23 32.35H328.18V36.2C328.18 36.6333 328.113 37 327.98 37.3C327.88 37.6 327.713 37.85 327.48 38.05Z" fill="black"/>
</g>
<defs>
<filter id="filter0_i_53_114" x="0.25" y="0.75" width="348.18" height="47.95" filterUnits="userSpaceOnUse" color-interpolation-filters="sRGB">
<feFlood flood-opacity="0" result="BackgroundImageFix"/>
<feBlend mode="normal" in="SourceGraphic" in2="BackgroundImageFix" result="shape"/>
<feColorMatrix in="SourceAlpha" type="matrix" values="0 0 0 0 0 0 0 0 0 0 0 0 0 0 0 0 0 0 127 0" result="hardAlpha"/>
<feOffset dy="4"/>
<feGaussianBlur stdDeviation="2"/>
<feComposite in2="hardAlpha" operator="arithmetic" k2="-1" k3="1"/>
<feColorMatrix type="matrix" values="0 0 0 0 0 0 0 0 0 0 0 0 0 0 0 0 0 0 0.25 0"/>
<feBlend mode="normal" in2="shape" result="effect1_innerShadow_53_114"/>
</filter>
</defs>
</svg>
