<?xml version="1.0" standalone="no"?>
<!DOCTYPE svg PUBLIC "-//W3C//DTD SVG 20010904//EN"
 "http://www.w3.org/TR/2001/REC-SVG-20010904/DTD/svg10.dtd">
<svg version="1.0" xmlns="http://www.w3.org/2000/svg"
 width="369.000000pt" height="677.000000pt" viewBox="0 0 369.000000 677.000000"
 preserveAspectRatio="xMidYMid meet">

<g transform="translate(0.000000,677.000000) scale(0.100000,-0.100000)"
fill="#000000" stroke="none">
<path d="M413 6680 c-32 -13 -37 -49 -14 -103 36 -83 17 -146 -111 -360 -113
-191 -136 -233 -163 -298 -43 -105 -57 -177 -61 -306 -2 -91 -7 -129 -18 -145
-20 -29 -20 -44 4 -93 25 -52 25 -128 0 -184 -25 -55 -25 -77 1 -143 18 -47
20 -67 15 -178 -3 -69 -5 -134 -4 -145 0 -11 2 -207 3 -435 1 -228 5 -929 9
-1557 7 -1032 6 -1145 -9 -1172 -13 -27 -14 -35 -2 -58 18 -36 22 -457 5 -516
-9 -29 -9 -43 0 -58 16 -26 14 -108 -3 -139 -18 -32 -19 -61 0 -97 8 -15 17
-48 20 -73 7 -60 34 -101 87 -138 50 -35 187 -73 403 -112 102 -19 466 -51
670 -60 289 -12 1064 -5 1098 11 19 8 31 27 43 62 9 27 61 147 116 265 99 215
228 530 228 557 0 7 4 16 9 19 5 3 11 16 14 28 2 13 21 73 40 135 77 239 165
621 202 873 51 348 67 615 63 1045 -3 421 -17 651 -58 940 -6 39 -21 149 -35
245 -14 96 -32 216 -40 265 -9 50 -20 117 -25 150 -5 33 -28 148 -50 255 -168
816 -173 851 -174 1175 l-1 250 141 3 c168 3 171 2 150 -79 -17 -64 -42 -217
-51 -309 -4 -36 -9 -78 -11 -95 -2 -16 -7 -129 -10 -250 -7 -252 17 -664 56
-940 6 -38 12 -90 14 -115 5 -50 20 -157 35 -265 6 -38 33 -223 60 -410 28
-187 64 -430 80 -540 101 -677 137 -1147 128 -1645 -9 -471 -56 -811 -164
-1185 -19 -66 -43 -150 -53 -186 -11 -37 -29 -92 -40 -123 -12 -31 -19 -60
-16 -65 7 -10 56 -5 206 21 63 11 126 20 140 20 68 -1 163 77 202 166 19 43
20 65 19 586 -1 297 -4 555 -7 571 -2 17 -1 51 4 76 5 26 5 145 -1 284 -9 238
-6 294 25 380 21 59 20 92 -2 141 -26 57 -25 -50 -17 1884 3 730 1 1192 -5
1255 -9 87 -14 106 -43 150 -92 141 -158 270 -163 317 -4 40 -11 55 -39 81
-19 18 -39 40 -45 51 -18 33 -30 128 -28 218 1 87 1 88 -25 98 -14 5 -41 10
-59 10 -27 0 -37 -7 -57 -37 l-24 -38 -205 -1 c-113 0 -272 3 -355 7 -202 11
-479 20 -540 19 -27 0 -80 4 -117 11 -51 9 -71 9 -81 1 -14 -12 -91 -16 -442
-27 -88 -3 -191 -7 -230 -9 -232 -12 -566 -16 -583 -7 -11 6 -22 20 -25 32 -3
11 -3 18 0 15 7 -7 33 13 33 25 0 12 -88 10 -117 -1z m547 -507 c49 -56 140
-206 169 -281 11 -29 28 -90 37 -137 10 -46 21 -82 26 -79 4 3 5 10 2 16 -12
19 17 -2 106 -78 137 -115 373 -370 480 -517 69 -96 93 -118 159 -149 146 -67
283 -87 289 -42 4 28 -62 94 -164 164 -197 134 -256 181 -365 290 -132 131
-162 182 -163 272 -1 45 3 61 21 80 21 22 21 26 8 44 -10 13 -14 45 -15 102 0
70 2 82 17 82 9 0 78 -38 152 -84 276 -171 473 -286 487 -286 46 0 -29 95
-151 191 -57 45 -106 88 -109 96 -8 19 4 43 21 43 52 0 357 -283 402 -374 50
-102 37 -162 -40 -188 l-42 -14 35 -40 c71 -79 94 -165 59 -221 -16 -25 -30
-34 -75 -44 l-55 -12 54 -60 c106 -116 120 -191 49 -256 l-37 -34 -81 6 c-52
3 -113 16 -172 36 -106 36 -124 38 -124 14 0 -40 14 -61 53 -84 138 -77 296
-222 360 -331 30 -51 37 -72 37 -116 0 -66 -19 -96 -75 -118 -38 -14 -53 -14
-115 -4 -81 14 -167 45 -247 90 -228 129 -427 363 -427 502 0 44 4 54 32 79
28 25 40 29 92 29 57 0 181 -37 204 -60 17 -17 26 -11 26 19 0 42 -24 63 -135
121 -246 127 -422 255 -605 439 -181 182 -209 214 -265 300 -91 141 -116 241
-74 296 19 23 27 26 58 20 20 -3 60 -18 89 -32 41 -19 52 -29 47 -42 -5 -12
-3 -13 5 -4 9 8 8 28 -4 80 -27 120 -64 229 -90 271 -13 22 -22 43 -19 46 14
14 34 3 73 -41z m1429 -467 c7 -8 11 -27 9 -42 -4 -39 -50 -51 -78 -21 -24 25
-25 35 -3 59 19 22 56 24 72 4z m-1367 -383 c32 -32 58 -65 58 -74 0 -18 -27
-71 -101 -194 -26 -44 -64 -117 -84 -163 -31 -72 -36 -91 -33 -149 l3 -67 45
-2 c183 -8 490 -261 490 -403 0 -71 -51 -116 -121 -107 -115 14 -261 127 -377
291 -51 72 -57 77 -60 54 -4 -31 34 -126 80 -202 104 -172 322 -403 498 -528
117 -83 261 -169 284 -169 8 0 17 -4 21 -9 8 -14 97 -46 211 -76 113 -30 195
-28 252 7 63 38 79 126 38 206 -36 69 -62 100 -151 180 -56 50 -111 88 -181
124 -89 44 -111 51 -177 56 -69 4 -76 3 -86 -17 -17 -31 8 -80 60 -123 55 -44
79 -57 149 -79 50 -15 57 -21 93 -80 21 -35 59 -87 83 -115 29 -34 39 -54 31
-57 -24 -9 -162 33 -253 78 -115 56 -208 149 -243 243 -36 100 -26 159 33 200
113 77 445 -58 634 -260 177 -189 223 -421 106 -541 -183 -188 -581 -92 -999
241 -356 285 -635 798 -549 1012 10 24 14 51 10 68 -35 144 -37 282 -4 372 45
121 152 340 168 340 8 0 40 -26 72 -57z m1622 -1309 c4 -9 0 -24 -9 -34 -21
-23 -19 -56 5 -80 24 -24 58 -26 89 -4 24 17 24 31 6 107 -6 22 -4 27 12 27
19 0 53 -46 53 -74 0 -9 -7 -34 -17 -57 -11 -30 -25 -45 -49 -55 -51 -21 -80
-17 -119 17 -31 28 -35 36 -35 82 0 33 6 57 17 69 20 22 39 23 47 2z m-94
-259 c0 -18 -5 -25 -20 -25 -15 0 -20 7 -20 25 0 18 5 25 20 25 15 0 20 -7 20
-25z m244 16 c4 -5 3 -16 0 -25 -5 -13 -24 -16 -104 -16 -99 0 -117 6 -106 35
4 12 27 15 105 15 55 0 102 -4 105 -9z m-18 -108 c21 -23 24 -33 18 -68 -9
-55 -21 -75 -46 -75 -17 0 -19 4 -13 23 14 42 17 97 7 97 -14 0 -42 -40 -42
-59 0 -20 -40 -61 -59 -61 -8 0 -25 10 -38 22 -37 35 -28 138 13 138 13 0 14
-9 9 -55 -5 -36 -4 -55 3 -55 15 0 42 40 42 61 0 20 45 59 67 59 8 0 25 -12
39 -27z m-1556 -93 c32 -22 62 -45 66 -51 8 -13 6 -160 -2 -168 -3 -3 -11 -1
-18 4 -7 6 -38 27 -69 47 -40 27 -57 45 -62 67 -8 38 4 141 17 141 5 0 36 -18
68 -40z m1560 -117 c25 -32 22 -86 -7 -129 -14 -21 -18 -23 -30 -11 -11 11
-11 19 1 49 13 30 13 38 1 54 -17 23 -28 13 -44 -37 -7 -20 -20 -44 -31 -54
-17 -15 -24 -16 -50 -5 -18 7 -33 22 -36 37 -7 26 0 101 11 111 10 10 40 -15
36 -30 -11 -38 -12 -66 -1 -73 15 -9 27 8 40 57 18 62 73 78 110 31z m-1555
-176 c33 -23 105 -71 160 -106 55 -35 123 -78 150 -96 200 -127 255 -153 255
-121 0 24 -75 109 -164 185 -71 61 -86 78 -86 102 0 16 3 29 6 29 26 0 223
-159 294 -237 128 -142 163 -239 103 -290 -14 -13 -39 -23 -55 -23 -32 0 -36
-11 -11 -31 9 -8 34 -41 55 -73 32 -49 38 -68 38 -110 -1 -85 -37 -112 -137
-102 l-64 7 66 -77 c91 -107 135 -198 135 -279 0 -56 -3 -65 -35 -102 -46 -54
-80 -67 -163 -61 -70 5 -199 52 -247 89 -27 22 -45 18 -45 -9 1 -27 19 -44
134 -122 130 -89 253 -210 307 -302 62 -106 53 -189 -26 -238 -174 -107 -645
204 -758 500 -29 78 -22 135 26 188 27 29 97 30 186 2 35 -11 66 -18 68 -16 3
2 -7 22 -21 43 -14 20 -26 42 -26 46 0 10 -73 102 -100 127 -27 25 -96 123
-120 170 -13 26 -25 71 -28 106 -4 52 -1 68 17 98 28 45 74 61 132 46 46 -13
47 -13 106 -67 75 -68 55 -146 -31 -122 -38 11 -73 44 -81 77 -9 36 -23 52
-41 45 -55 -21 44 -177 180 -280 33 -26 112 -73 173 -105 96 -49 121 -58 166
-58 56 0 76 12 91 54 21 59 -121 226 -329 386 -311 240 -438 429 -366 546 14
23 16 35 9 42 -11 11 -21 159 -12 174 10 16 30 8 89 -35z m1562 -47 c2 -19 5
-51 8 -70 5 -29 1 -40 -20 -62 -14 -16 -36 -28 -49 -28 -35 0 -69 43 -72 91
-1 22 -5 43 -8 47 -15 14 -26 -25 -20 -70 6 -50 -7 -63 -34 -36 -19 19 -14
109 6 134 25 30 38 33 117 31 l70 -2 2 -35z m-369 -127 c-92 -185 -108 -238
-109 -378 -1 -113 10 -148 66 -215 l36 -43 -49 -46 c-117 -109 -156 -288 -117
-544 8 -54 38 -198 66 -320 64 -282 76 -375 60 -482 -16 -102 -47 -171 -108
-236 -152 -162 -417 -171 -737 -25 -284 130 -601 471 -713 766 -66 174 -77
304 -31 378 25 41 46 52 98 52 110 0 244 -142 188 -198 -7 -7 -31 -12 -53 -12
-35 0 -47 6 -73 34 -17 19 -34 50 -37 70 -6 29 -12 36 -31 36 -19 0 -24 -7
-30 -36 -15 -82 41 -206 168 -374 157 -206 432 -412 683 -511 108 -42 227 -61
322 -50 107 13 165 54 221 156 26 48 27 55 26 200 -1 158 -12 227 -84 515 -44
177 -68 314 -81 461 -20 241 12 399 118 573 64 105 170 236 190 236 8 0 13 -3
11 -7z m374 -90 c24 -25 -8 -32 -147 -34 -126 -1 -140 1 -143 16 -2 10 2 22
10 27 20 14 264 6 280 -9z m-159 -114 c-1 -13 -5 -36 -8 -51 -14 -53 64 -90
107 -51 20 18 24 73 7 90 -7 7 -9 19 -6 27 19 49 74 -29 63 -90 -4 -18 -21
-47 -38 -65 -29 -29 -36 -31 -82 -26 -40 3 -54 10 -73 33 -29 36 -32 117 -6
146 21 24 38 18 36 -13z"/>
<path d="M854 5815 c-16 -40 193 -280 376 -431 85 -70 308 -227 365 -256 17
-8 51 -28 78 -42 26 -15 47 -24 47 -18 0 26 -187 240 -331 377 -46 44 -112
107 -147 141 -55 54 -63 59 -67 40 -3 -12 -4 -28 -3 -36 0 -8 0 -27 0 -42 -3
-43 -29 -35 -100 30 l-62 57 0 85 c0 57 -3 80 -10 70 -10 -16 -14 -15 -103 24
-33 15 -38 15 -43 1z"/>
<path d="M1634 5675 c-16 -40 84 -151 240 -267 99 -74 273 -161 313 -156 81 9
5 99 -206 243 -24 16 -52 34 -62 40 -10 5 -71 43 -134 83 -119 74 -141 83
-151 57z"/>
<path d="M1628 4676 c-23 -17 -22 -21 3 -72 49 -103 175 -112 226 -17 21 40
14 49 -64 81 -58 25 -139 28 -165 8z"/>
<path d="M1911 4546 c-12 -19 -34 -46 -49 -58 -16 -13 -31 -28 -35 -35 -8 -12
93 -88 171 -127 47 -24 144 -56 169 -56 26 0 51 36 45 65 -7 37 -126 162 -194
202 -81 49 -83 49 -107 9z"/>
<path d="M890 4597 c0 -20 95 -155 148 -210 58 -59 155 -130 203 -147 50 -18
89 -7 89 26 0 44 -36 97 -118 176 -78 75 -179 134 -257 152 -16 4 -38 9 -47
12 -11 3 -18 0 -18 -9z"/>
<path d="M1216 3073 c-28 -28 40 -113 184 -232 118 -98 193 -149 273 -187 53
-24 116 -32 118 -14 1 6 2 16 3 24 3 39 -123 139 -369 293 -189 118 -200 124
-209 116z"/>
<path d="M1223 1944 c-8 -3 -13 -23 -13 -46 0 -35 6 -47 44 -84 54 -54 89 -58
130 -15 20 21 29 41 30 66 1 35 -2 38 -45 55 -50 20 -127 32 -146 24z"/>
<path d="M1461 1792 c-16 -33 -37 -62 -46 -65 -34 -14 -14 -43 63 -94 161
-106 257 -137 296 -97 29 29 -1 91 -84 174 -34 34 -161 127 -186 137 -8 3 -25
-19 -43 -55z"/>
<path d="M2700 3176 c0 -42 2 -46 24 -46 13 0 27 7 30 16 8 22 -15 68 -37 72
-14 3 -17 -4 -17 -42z"/>
<path d="M2630 220 c-52 -3 -103 -10 -112 -14 -11 -5 -18 -4 -18 2 0 6 -55 8
-142 7 -79 -1 -352 -6 -608 -10 -256 -3 -467 -9 -469 -11 -10 -10 15 -14 179
-26 206 -15 639 -14 865 2 88 6 192 14 230 16 39 3 95 10 125 15 30 6 79 12
107 13 29 1 56 6 60 9 7 8 -73 7 -217 -3z"/>
<path d="M2895 125 c-54 -18 -23 -18 40 -1 29 8 39 14 25 14 -14 0 -43 -6 -65
-13z"/>
<path d="M2818 103 c7 -3 16 -2 19 1 4 3 -2 6 -13 5 -11 0 -14 -3 -6 -6z"/>
<path d="M2738 93 c6 -2 18 -2 25 0 6 3 1 5 -13 5 -14 0 -19 -2 -12 -5z"/>
<path d="M2663 83 c9 -2 25 -2 35 0 9 3 1 5 -18 5 -19 0 -27 -2 -17 -5z"/>
<path d="M2520 70 c0 -5 5 -10 11 -10 5 0 7 5 4 10 -3 6 -8 10 -11 10 -2 0 -4
-4 -4 -10z"/>
<path d="M2448 63 c12 -2 32 -2 45 0 12 2 2 4 -23 4 -25 0 -35 -2 -22 -4z"/>
<path d="M2140 50 l-45 -7 53 -1 c29 -1 52 2 52 8 0 6 -3 9 -7 8 -5 0 -28 -4
-53 -8z"/>
<path d="M2298 53 c23 -2 61 -2 85 0 23 2 4 4 -43 4 -47 0 -66 -2 -42 -4z"/>
<path d="M1753 43 c53 -2 141 -2 195 0 53 1 9 3 -98 3 -107 0 -151 -2 -97 -3z"/>
</g>
</svg>
